<svg xmlns="http://www.w3.org/2000/svg" xmlns:xlink="http://www.w3.org/1999/xlink" width="1910" height="1000"><defs><clipPath id="f"><path d="M180.93 451.777H238v222.274h-57.07Zm0 0"/></clipPath><clipPath id="g"><path d="M180.93 451.777H251v222.274h-70.07Zm0 0"/></clipPath><clipPath id="h"><path d="M180.93 451.777H264v222.274h-83.07Zm0 0"/></clipPath><clipPath id="i"><path d="M180.93 451.777H277v222.274h-96.07Zm0 0"/></clipPath><clipPath id="j"><path d="M180.93 451.777H290v222.274H180.93Zm0 0"/></clipPath><clipPath id="k"><path d="M180.93 451.777H303v222.274H180.93Zm0 0"/></clipPath><clipPath id="l"><path d="M180.93 451.777H316v222.274H180.93Zm0 0"/></clipPath><clipPath id="m"><path d="M180.93 451.777H329v222.274H180.93Zm0 0"/></clipPath><clipPath id="n"><path d="M180.93 451.777H342v222.274H180.93Zm0 0"/></clipPath><clipPath id="o"><path d="M180.93 451.777H355v222.274H180.93Zm0 0"/></clipPath><clipPath id="p"><path d="M180.93 451.777H368v222.274H180.93Zm0 0"/></clipPath><clipPath id="q"><path d="M180.93 451.777H381v222.274H180.93Zm0 0"/></clipPath><clipPath id="r"><path d="M180.93 451.777h209.824v222.274H180.93Zm0 0"/></clipPath><clipPath id="s"><path d="M180.93 382.352H334v37.492H180.93Zm0 0"/></clipPath><clipPath id="t"><path d="M180.93 382.352H347v37.492H180.93Zm0 0"/></clipPath><clipPath id="u"><path d="M180.93 382.352H360v37.492H180.93Zm0 0"/></clipPath><clipPath id="v"><path d="M180.93 382.352H373v37.492H180.93Zm0 0"/></clipPath><clipPath id="w"><path d="M180.93 382.352H386v37.492H180.93Zm0 0"/></clipPath><clipPath id="x"><path d="M180.93 382.352h209.824v37.492H180.93Zm0 0"/></clipPath><clipPath id="y"><path d="M1508 486h211v113h-211Zm0 0"/></clipPath><clipPath id="z"><path d="M1718.473 542.605c0 31.086-46.914 56.286-104.785 56.286-57.872 0-104.782-25.2-104.782-56.286 0-31.085 46.91-56.289 104.782-56.289 57.87 0 104.785 25.204 104.785 56.29Zm0 0"/></clipPath><clipPath id="A"><path d="M1433.277 311.348H1596v30.445h-162.723Zm0 0"/></clipPath><clipPath id="B"><path d="M1433.277 311.348h173.012v30.445h-173.012Zm0 0"/></clipPath><clipPath id="C"><path d="M1433.277 248.781H1596v30.45h-162.723Zm0 0"/></clipPath><clipPath id="D"><path d="M1433.277 248.781h173.012v30.45h-173.012Zm0 0"/></clipPath><clipPath id="E"><path d="M1515 631h198v83h-198Zm0 0"/></clipPath><clipPath id="F"><path d="M1613.688 666.793c-42.95 0-79.696-13.953-98.547-35.172v31.86c2.98 27.71 47.043 50.187 98.546 50.187 51.504 0 95.567-22.48 98.551-50.188v-31.859c-18.855 21.219-55.601 35.172-98.55 35.172Zm72.285 18.195c-5.953.844-11.813-2.027-14.7-7.195-2.882-5.168-2.187-11.547 1.75-16 3.938-4.453 10.29-6.043 15.922-3.984 5.637 2.058 9.375 7.328 9.375 13.218.489 7.18-5.02 13.41-12.347 13.961Zm0 0"/></clipPath><clipPath id="G"><path d="M430.523 382.352h144.493v76.812H430.523Zm0 0"/></clipPath><clipPath id="H"><path d="M430.523 597.238h144.493v76.813H430.523Zm0 0"/></clipPath><clipPath id="I"><path d="M430.523 489.797h144.493v76.812H430.523Zm0 0"/></clipPath><clipPath id="b"><path d="M0 0h3367v1226H0z"/></clipPath><clipPath id="d"><path d="M0 0h1910v1000H0z"/></clipPath><g id="c" fill="#90D1F4" clip-path="url(#b)"><path d="M1598.59 1222.82 2847.543 0l3.246 3.18L1601.836 1226ZM1615.246 1222.82 2864.191 0l3.25 3.184L1618.492 1226ZM1631.895 1222.82 2880.844 0l3.25 3.18L1635.14 1226ZM1648.547 1222.82 2897.497 0l3.25 3.18L1651.792 1226ZM1665.2 1222.82 2914.147 0l3.25 3.18L1668.45 1226ZM1681.852 1222.82 2930.8 0l3.25 3.184L1685.1 1226ZM1698.5 1222.82 2947.453 0l3.246 3.18L1701.75 1226ZM1715.152 1222.82 2964.105 0l3.247 3.18L1718.402 1226ZM1731.809 1222.82 2980.758 0l3.246 3.184L1735.054 1226ZM1748.46 1222.816 2997.41 0l3.246 3.18L1751.707 1226ZM1765.11 1222.82 3014.062 0l3.246 3.18L1768.355 1226ZM1781.762 1222.82 3030.71 0l3.25 3.18L1785.008 1226ZM1798.418 1222.82 3047.363 0l3.25 3.184L1801.664 1226ZM1815.066 1222.816 3064.016 0l3.25 3.18L1818.316 1226ZM1831.715 1222.82 3080.668 0l3.25 3.18L1834.965 1226ZM1848.367 1222.82 3097.32 0l3.25 3.18L1851.617 1226ZM1865.023 1222.816 3113.973 0l3.246 3.18L1868.273 1226ZM1881.676 1222.82 3130.625 0l3.246 3.184L1884.921 1226ZM1898.324 1222.82 3147.277 0l3.246 3.18L1901.574 1226ZM1914.977 1222.82 3163.93 0l3.246 3.18L1918.223 1226ZM1931.633 1222.816 3180.582 0l3.246 3.18L1934.878 1226ZM1948.281 1222.82 3197.234 0l3.246 3.18L1951.527 1226ZM1964.934 1222.82 3213.883 0l3.25 3.18L1968.18 1226ZM1981.586 1222.82 3230.536 0l3.25 3.184L1984.835 1226ZM1998.238 1222.82 3247.188 0l3.25 3.18L2001.484 1226ZM2014.887 1222.82 3263.84 0l3.25 3.18L2018.137 1226ZM2031.543 1222.816 3280.493 0l3.25 3.18L2034.792 1226ZM2048.195 1222.816 3297.145 0l3.246 3.18L2051.44 1226ZM2064.844 1222.82 3313.797 0l3.246 3.18L2068.093 1226ZM2081.496 1222.82 3330.45 0l3.246 3.18L2084.742 1226ZM2098.152 1222.816 3347.102 0l3.246 3.18L2101.398 1226ZM2114.805 1222.82 3363.754 0 3367 3.18 2118.05 1226ZM1065.727 1222.82 2314.68 0l3.246 3.18L1068.973 1226ZM1082.383 1222.816 2331.332 0l3.246 3.18L1085.628 1226ZM1099.031 1222.82 2347.981 0l3.25 3.18L1102.276 1226ZM1115.684 1222.82 2364.633 0l3.25 3.18L1118.93 1226ZM1132.336 1222.82 2381.286 0l3.25 3.18L1135.585 1226ZM1148.988 1222.82 2397.938 0l3.25 3.184L1152.237 1226ZM1165.637 1222.82 2414.59 0l3.246 3.18L1168.886 1226ZM1182.29 1222.82 2431.241 0l3.246 3.18L1185.54 1226ZM1198.945 1222.82 2447.895 0l3.246 3.18L1202.19 1226ZM1215.598 1222.816 2464.547 0l3.246 3.18L1218.843 1226ZM1232.246 1222.82 2481.2 0l3.246 3.18L1235.492 1226ZM1248.898 1222.82 2497.852 0l3.246 3.18L1252.145 1226ZM1265.555 1222.82 2514.5 0l3.25 3.184L1268.8 1226ZM1282.203 1222.82 2531.153 0l3.25 3.184L1285.452 1226ZM1298.855 1222.82 2547.805 0l3.25 3.18L1302.102 1226ZM1315.504 1222.82 2564.457 0l3.25 3.18L1318.754 1226ZM1332.16 1222.82 2581.11 0l3.245 3.184L1335.41 1226ZM1348.813 1222.816 2597.762 0l3.246 3.18L1352.063 1226ZM1365.46 1222.82 2614.415 0l3.246 3.18L1368.71 1226ZM1382.113 1222.82 2631.066 0l3.247 3.18L1385.362 1226ZM1398.77 1222.816 2647.719 0l3.246 3.18L1402.015 1226ZM1415.418 1222.82 2664.371 0l3.246 3.18L1418.664 1226ZM1432.07 1222.82 2681.02 0l3.25 3.18L1435.316 1226ZM1448.727 1222.816 2697.672 0l3.25 3.18L1451.972 1226ZM1465.375 1222.82 2714.325 0l3.25 3.18L1468.62 1226ZM1482.023 1222.82 2730.977 0l3.25 3.18L1485.273 1226ZM1498.68 1222.816 2747.629 0l3.25 3.18L1501.929 1226ZM1515.332 1222.816 2764.282 0l3.245 3.18L1518.582 1226ZM1531.98 1222.82 2780.934 0l3.246 3.18L1535.23 1226ZM1548.633 1222.82 2797.586 0l3.246 3.18L1551.882 1226ZM1565.29 1222.82 2814.237 0l3.246 3.184L1568.535 1226ZM1581.941 1222.816 2830.891 0l3.246 3.18L1585.187 1226ZM532.863 1222.82 1781.816 0l3.246 3.18L536.11 1226ZM549.52 1222.816 1798.469 0l3.246 3.18L552.765 1226ZM566.168 1222.82 1815.118 0l3.25 3.18L569.413 1226ZM582.82 1222.82 1831.77 0l3.25 3.18L586.066 1226ZM599.473 1222.816 1848.422 0l3.25 3.18L602.722 1226ZM616.125 1222.816 1865.075 0l3.25 3.18L619.374 1226ZM632.773 1222.82 1881.727 0l3.25 3.18L636.023 1226ZM649.426 1222.82 1898.379 0l3.246 3.18L652.675 1226ZM666.082 1222.82 1915.032 0l3.245 3.18L669.328 1226ZM682.734 1222.816 1931.684 0l3.246 3.18L685.98 1226ZM699.383 1222.82 1948.336 0l3.246 3.18L702.629 1226ZM716.035 1222.82 1964.988 0l3.246 3.18L719.281 1226ZM732.691 1222.816 1981.641 0l3.246 3.18L735.937 1226ZM749.344 1222.816 1998.289 0l3.25 3.18L752.59 1226ZM765.992 1222.82 2014.942 0l3.25 3.18L769.237 1226ZM782.645 1222.82 2031.594 0l3.25 3.18L785.89 1226ZM799.297 1222.816 2048.247 0l3.25 3.18L802.546 1226ZM815.95 1222.82 2064.897 0l3.247 3.18L819.199 1226ZM832.598 1222.82 2081.55 0l3.246 3.18L835.847 1226ZM849.25 1222.82 2098.203 0l3.246 3.18L852.5 1226ZM865.906 1222.816 2114.856 0l3.246 3.18L869.152 1226ZM882.555 1222.82 2131.508 0l3.246 3.18L885.8 1226ZM899.207 1222.82 2148.16 0l3.246 3.18L902.453 1226ZM915.863 1222.82 2164.81 0l3.25 3.18L919.109 1226ZM932.512 1222.82 2181.46 0l3.25 3.18L935.758 1226ZM949.164 1222.82 2198.114 0l3.25 3.18L952.41 1226ZM965.816 1222.82 2214.766 0l3.25 3.18L969.066 1226ZM982.469 1222.82 2231.418 0l3.25 3.184L985.718 1226ZM999.117 1222.82 2248.07 0l3.246 3.18L1002.367 1226ZM1015.77 1222.82 2264.723 0l3.246 3.18L1019.019 1226ZM1032.426 1222.816 2281.375 0l3.246 3.18L1035.671 1226ZM1049.078 1222.816 2298.028 0l3.245 3.18L1052.324 1226ZM0 1222.82 1248.953 0l3.246 3.18L3.246 1226ZM16.656 1222.82 1265.606 0l3.246 3.184L19.902 1226ZM33.305 1222.82 1282.258 0l3.246 3.18L36.55 1226ZM49.957 1222.82 1298.907 0l3.25 3.18L53.202 1226ZM66.61 1222.816 1315.558 0l3.25 3.18L69.859 1226ZM83.262 1222.816 1332.21 0l3.25 3.18L86.51 1225.996ZM99.91 1222.82 1348.863 0l3.25 3.18L103.16 1226ZM116.563 1222.82 1365.515 0l3.25 3.18L119.812 1226ZM133.219 1222.82 1382.168 0l3.246 3.18L136.47 1226ZM149.871 1222.816 1398.821 0l3.245 3.18L153.117 1226ZM166.52 1222.82 1415.473 0l3.246 3.18L169.766 1226ZM183.172 1222.82 1432.125 0l3.246 3.18L186.418 1226ZM199.828 1222.816 1448.778 0l3.245 3.18L203.074 1226ZM216.48 1222.816 1465.43 0l3.246 3.18L219.726 1226ZM233.129 1222.82 1482.079 0l3.25 3.18L236.374 1226ZM249.781 1222.82 1498.731 0l3.25 3.18L253.026 1226ZM266.434 1222.816 1515.383 0l3.25 3.18L269.683 1226ZM283.086 1222.82 1532.036 0l3.25 3.18L286.335 1226ZM299.734 1222.82 1548.688 0l3.25 3.18L302.984 1226ZM316.387 1222.82 1565.34 0l3.246 3.18L319.636 1226ZM333.043 1222.82 1581.993 0l3.245 3.18L336.29 1226ZM349.691 1222.82 1598.645 0l3.246 3.18L352.937 1226ZM366.344 1222.82 1615.297 0l3.246 3.18L369.59 1226ZM383 1222.82 1631.95 0l3.245 3.18L386.246 1226ZM399.648 1222.82 1648.598 0l3.25 3.18L402.895 1226ZM416.3 1222.82 1665.25 0l3.25 3.18L419.547 1226ZM432.953 1222.816 1681.903 0l3.25 3.18L436.202 1226ZM449.605 1222.82 1698.555 0l3.25 3.18L452.855 1226ZM466.254 1222.82 1715.207 0l3.246 3.18L469.503 1226ZM482.906 1222.82 1731.86 0l3.246 3.18L486.156 1226ZM499.563 1222.82 1748.512 0l3.246 3.18L502.808 1226ZM516.215 1222.82 1765.165 0l3.245 3.18L519.46 1226Zm0 0"/></g><g id="K" clip-path="url(#d)"><path fill="#4EA8F1" d="M955.54 651.508v-24.801l-5.782-.809c-35.27-4.925-64.774-13.617-93.653-27.59-24.109-11.663-42.265-24.37-58.98-41.285-34.625-35.043-45.992-78.343-31.426-119.703 20.414-57.953 91.27-103.953 179.93-116.812 17.95-2.602 30.039-3.426 51.203-3.48 40.262-.11 74.04 5.144 109.566 17.042 36.282 12.153 65.11 29.024 88.38 51.723 21.742 21.207 33.863 42.156 39.019 67.426 2.148 10.543 2.148 28.707 0 39.25-3.992 19.562-13.203 38.199-27.395 55.422-6.527 7.925-21.101 21.398-30.933 28.601-4.867 3.563-9.516 6.82-10.332 7.238-.817.418-1.489 1.008-1.489 1.313 0 .305 12.329 20.89 27.391 45.75l27.39 45.195-45.394.168c-24.965.094-45.715.047-46.11-.101-.394-.145-7.976-13.696-16.847-30.11-15.258-28.234-16.219-29.832-17.781-29.586-.906.141-5.219 1.176-9.578 2.297-10.282 2.649-25.032 5.535-35.016 6.86-4.363.578-8.598 1.187-9.414 1.351l-1.488.301v49.144h-81.262Zm97.448-60.89c11.434-.333 24.016-1.333 24.653-1.958.437-.426-4.48-6.668-7.543-9.574-1.418-1.348-4.047-3.164-5.844-4.043-3.117-1.523-3.828-1.598-15.36-1.598h-12.093v18.035l2.148-.257c1.18-.141 7.496-.414 14.04-.606Zm-97.449-93.513v-83.457h83.79c74.054 0 84.51.118 90.015 1.043 27.36 4.582 46.863 17.414 56.773 37.36 11.988 24.117 8.41 58.133-8.254 78.5-11.449 13.992-30.437 24.07-52.203 27.707-2.601.433-2.52.48 5.617 3.258 4.543 1.547 10.7 4.023 13.68 5.5l5.422 2.683 5.68-2.957c14.87-7.746 29.113-20.094 37.004-32.078 6.496-9.867 11.175-21.64 13.253-33.355 1.555-8.786 1.551-24.918-.015-33.641-8.875-49.477-53.801-79.598-131.2-87.969-53.511-5.785-104.488.344-145.906 17.547-25.394 10.547-47.586 26.547-60.894 43.895-4.926 6.425-10.64 17.601-12.813 25.058-9.472 32.528 6.918 65.602 44.688 90.168 7.254 4.715 20.875 11.856 29.594 15.504 5.05 2.117 23.746 8.602 24.94 8.656.657.032.83-17.066.83-83.422Zm139.16 16.57c5.531-1.94 9.5-5.327 12.102-10.32 2.097-4.03 2.281-4.851 2.312-10.328.059-10.394-3.488-16.547-11.656-20.242l-4.168-1.883-55.828-.398v44.781l26.922-.21c24.137-.188 27.273-.333 30.316-1.4Zm0 0"/><path fill="#FFF" fill-rule="evenodd" d="M992.012 324.031c-51.059 0-101.82 12.047-146.367 36.719-35.239 19.691-67.239 50.512-76.329 90.438-8.05 33.437 4.563 68.847 27.301 94.12 29.192 33.208 71.008 52.938 113.305 64.981 15.473 3.645 30.992 7.152 46.902 8.86 6.051 3.101 6.492 9.195 5.817 15.132v35.04h67.152c.156-14.759-.324-29.548.363-44.286 3.153-4.308 7.621-6.097 12.875-6.238 16.371-2.387 32.485-6.746 48.88-9.34 9.14-.207 11.202 10.395 15.476 16.27 7.902 14.175 15.672 28.421 23.527 42.62 24.918-.03 49.836.102 74.75-.156-16.156-27.035-33.23-53.597-48.262-81.246-2.09-7.902 7.559-11.172 12.29-15.61 26.855-19.151 49.578-46.358 56.468-78.784 4.008-22.281 1.86-45.969-9.246-66.098-18.777-35.715-53.851-62.008-91.09-77.746-39.332-16.406-82.195-25.031-124.844-24.676-2.988-.02-5.98-.02-8.968 0Zm44.457 46.82c40.687-.503 82.41 5.235 119.23 22.954 30.07 14.3 54.895 42.61 57.918 76.027 2.688 22.762-.512 46.809-13.445 66.34-11.637 17.512-28.852 31.836-48.445 39.887-6.473.527-11.88-5.063-18.157-6.485-5.523-2.894-14.898-3.316-16.293-10.449-.73-8.184 9.641-8.406 15.41-10.043 22.86-5.441 44.555-21.305 50.282-44.602 7.37-24.597 1.402-55.304-21.332-70.39-13.48-9.086-29.309-14.094-45.7-13.246-51.097-.61-102.199-.54-153.296-.84-.313 52.527.668 105.082-.625 157.594.73 6.625-6.293 11.664-12.422 8.523-35.055-11.336-69.946-29.57-90.836-60.422-14.434-21.847-17.668-51.09-4.985-74.433 17.04-31.723 49.63-52.489 83.164-64.715 31.79-11.34 65.731-16.485 99.532-15.7Zm29.687 92.579c10.418.543 21.086-.79 31.336 1.004 10.395 3.906 18.207 13.421 18.488 24.503 1.81 10.415-2.75 21.063-11.566 27.133-10.465 7.54-24.46 4.485-36.555 5.657-10.355-.168-21.168 1.14-31.23.011-8.856-3.351-5.074-13.433-5.711-20.52.508-10.745-.52-21.995.95-32.429 3.6-8.492 13.695-4.793 20.91-5.465 4.456.031 8.917.067 13.378.102Zm-24.351 102.09c11.71.449 25.715-.73 34.039 9.105 4.48 4.664 12.488 11.973 6.43 18.422-8.333 5.21-19.106 2.933-28.477 4.238-7.613-.597-17.356 3.63-22.719-3.34-2.894-6.66-.203-14.578-.785-21.761 2.875-4.688 5.68-7.286 11.512-6.664Zm0 0"/><path fill="url(#e)" fill-rule="evenodd" d="M992.012 324.031c-51.059 0-101.82 12.043-146.367 36.719-35.239 19.691-67.239 50.512-76.329 90.438-8.05 33.437 4.563 68.847 27.301 94.12 29.192 33.208 71.008 52.938 113.305 64.981 15.473 3.645 30.992 7.152 46.902 8.86 6.051 3.101 6.492 9.195 5.817 15.132v35.04h67.152c.156-14.759-.324-29.548.363-44.286 3.153-4.308 7.621-6.097 12.875-6.238 16.371-2.387 32.485-6.746 48.88-9.34 9.14-.207 11.202 10.395 15.476 16.27 7.902 14.175 15.672 28.421 23.527 42.62 24.918-.03 49.836.102 74.75-.156-16.156-27.035-33.23-53.597-48.262-81.246-2.09-7.902 7.559-11.172 12.29-15.61 26.855-19.151 49.578-46.358 56.468-78.784 4.008-22.281 1.86-45.969-9.246-66.098-18.777-35.715-53.851-62.008-91.09-77.746-39.332-16.406-82.195-25.031-124.844-24.676-2.988-.02-5.98-.02-8.968 0Zm44.457 46.82c40.687-.503 82.41 5.235 119.23 22.954 30.07 14.3 54.895 42.61 57.918 76.027 2.688 22.762-.512 46.809-13.445 66.34-11.637 17.512-28.852 31.836-48.445 39.887-6.473.527-11.88-5.063-18.157-6.485-5.523-2.894-14.898-3.316-16.293-10.449-.73-8.184 9.641-8.406 15.41-10.043 22.86-5.441 44.555-21.305 50.282-44.602 7.37-24.597 1.402-55.304-21.332-70.39-13.48-9.086-29.309-14.094-45.7-13.246-51.097-.61-102.199-.54-153.296-.84-.313 52.527.668 105.082-.625 157.594.73 6.625-6.293 11.664-12.422 8.523-35.055-11.336-69.946-29.57-90.836-60.422-14.434-21.847-17.668-51.09-4.985-74.433 17.04-31.723 49.63-52.489 83.164-64.715 31.79-11.34 65.731-16.485 99.532-15.7Zm29.687 92.579c10.418.543 21.086-.79 31.336 1.004 10.395 3.906 18.207 13.421 18.488 24.503 1.81 10.415-2.75 21.063-11.566 27.133-10.465 7.54-24.46 4.485-36.555 5.657-10.355-.168-21.168 1.14-31.23.011-8.856-3.351-5.074-13.433-5.711-20.52.508-10.745-.52-21.995.95-32.429 3.6-8.492 13.695-4.793 20.91-5.465 4.456.031 8.917.067 13.378.102Zm-24.351 102.09c11.71.449 25.715-.73 34.039 9.105 4.48 4.664 12.488 11.973 6.43 18.422-8.333 5.21-19.106 2.933-28.477 4.238-7.613-.597-17.356 3.63-22.719-3.34-2.894-6.66-.203-14.578-.785-21.761 2.875-4.688 5.68-7.286 11.512-6.664Zm0 0"/></g><pattern id="e" width="3367" height="1226" x="0" y="0" patternTransform="matrix(1.00018 0 0 1.00035 -3916.874 -98.467)" patternUnits="userSpaceOnUse"><use xlink:href="#c"/></pattern><filter id="a" width="100%" height="100%" x="0%" y="0%"><feColorMatrix color-interpolation-filters="sRGB" values="0 0 0 0 1 0 0 0 0 1 0 0 0 0 1 0 0 0 1 0"/></filter><mask id="J"><g filter="url(#a)"><path fill-opacity=".721" d="M-191-100h2292v1200H-191z"/></g></mask></defs><path fill="#FFF" stroke="#FFF" stroke-width=".932" d="M-3.636-6.204h383.564v208.34H-3.636Zm0 0" transform="matrix(5.02632 0 0 4.922 0 7.8)"/><g clip-path="url(#f)"><path fill="#90D1F4" d="M-719.926 1347.71 235.16 412.45l2.485 2.433-955.086 935.262Zm0 0"/></g><g clip-path="url(#g)"><path fill="#90D1F4" d="m-706.969 1347.71 955.082-935.257 2.485 2.43-955.082 935.262Zm0 0"/></g><g clip-path="url(#h)"><path fill="#90D1F4" d="M-694.012 1347.71 261.07 412.45l2.485 2.433-955.082 935.262Zm0 0"/></g><g clip-path="url(#i)"><path fill="#90D1F4" d="m-681.055 1347.71 955.086-935.26 2.48 2.433-955.081 935.262Zm0 0"/></g><g clip-path="url(#j)"><path fill="#90D1F4" d="m-668.098 1347.71 955.082-935.257 2.485 2.43-955.082 935.262Zm0 0"/></g><g clip-path="url(#k)"><path fill="#90D1F4" d="m-655.137 1347.71 955.078-935.257 2.485 2.43-955.082 935.262Zm0 0"/></g><g clip-path="url(#l)"><path fill="#90D1F4" d="m-642.184 1347.71 955.086-935.26 2.48 2.433-955.081 935.262Zm0 0"/></g><g clip-path="url(#m)"><path fill="#90D1F4" d="M-629.223 1347.71 325.86 412.45l2.485 2.433-955.086 935.262Zm0 0"/></g><g clip-path="url(#n)"><path fill="#90D1F4" d="m-616.27 1347.71 955.082-935.257 2.485 2.43-955.082 935.258Zm0 0"/></g><g clip-path="url(#o)"><path fill="#90D1F4" d="m-603.309 1347.71 955.082-935.26 2.485 2.433-955.082 935.258Zm0 0"/></g><g clip-path="url(#p)"><path fill="#90D1F4" d="m-590.3 1347.71 955.085-935.26 2.48 2.433-955.081 935.262Zm0 0"/></g><g clip-path="url(#q)"><path fill="#90D1F4" d="m-577.34 1347.71 955.082-935.26 2.485 2.433-955.086 935.262Zm0 0"/></g><g fill="#90D1F4" clip-path="url(#r)"><path d="m-564.383 1347.71 955.078-935.257 2.485 2.43-955.082 935.262ZM-551.426 1347.71l955.082-935.257 2.485 2.43-955.082 935.262ZM-538.473 1347.71l955.086-935.26 2.485 2.433-955.086 935.262ZM-525.512 1347.71 429.57 412.45l2.485 2.433-955.082 935.262ZM-512.555 1347.71l955.078-935.26 2.485 2.433-955.078 935.258ZM-499.598 1347.71l955.082-935.26 2.485 2.433-955.082 935.258ZM-486.645 1347.71l955.086-935.26 2.485 2.433-955.086 935.262ZM-473.684 1347.71l955.082-935.26 2.485 2.433-955.082 935.262ZM-460.727 1347.71l955.082-935.26 2.485 2.433-955.082 935.258ZM-448.047 1347.71 507.04 412.45l2.48 2.433-955.082 935.262ZM-435.09 1347.71l955.086-935.26 2.484 2.433-955.085 935.262ZM-422.129 1347.71 532.95 412.45l2.485 2.433-955.082 935.258ZM-409.176 1347.71l955.082-935.26 2.485 2.433-955.082 935.262ZM-396.219 1347.71l955.086-935.26 2.48 2.433-955.081 935.262ZM-383.262 1347.71 571.82 412.45l2.485 2.433-955.082 935.258ZM-370.3 1347.71l955.077-935.26 2.485 2.433-955.082 935.258ZM-357.348 1347.71l955.086-935.26 2.48 2.433-955.081 935.262ZM-344.39 1347.71l955.085-935.26 2.485 2.433-955.086 935.262ZM-331.43 1347.71l955.078-935.26 2.485 2.433-955.082 935.258ZM-318.473 1347.71 636.61 412.45l2.48 2.433-955.077 935.258Zm0 0"/></g><g clip-path="url(#s)"><path fill="#90D1F4" d="M-623.973 1182.926 331.11 247.664l2.48 2.434-955.077 935.257Zm0 0"/></g><g clip-path="url(#t)"><path fill="#90D1F4" d="m-611.016 1182.926 955.082-935.262 2.485 2.434-955.082 935.257Zm0 0"/></g><g clip-path="url(#u)"><path fill="#90D1F4" d="m-598.008 1182.926 955.086-935.262 2.485 2.434-955.086 935.261Zm0 0"/></g><g clip-path="url(#v)"><path fill="#90D1F4" d="m-585.047 1182.926 955.082-935.262 2.485 2.434-955.082 935.261Zm0 0"/></g><g clip-path="url(#w)"><path fill="#90D1F4" d="m-572.09 1182.926 955.082-935.262 2.48 2.434-955.077 935.257Zm0 0"/></g><g fill="#90D1F4" clip-path="url(#x)"><path d="M-559.133 1182.926 395.95 247.664l2.485 2.434-955.082 935.257ZM-546.176 1182.926l955.082-935.262 2.485 2.434-955.086 935.261ZM-533.219 1182.926l955.082-935.262 2.485 2.434-955.082 935.261ZM-520.262 1182.926 434.82 247.664l2.485 2.434-955.082 935.257ZM-507.305 1182.926l955.082-935.262 2.485 2.434-955.082 935.257ZM-494.348 1182.926l955.082-935.262 2.485 2.434-955.082 935.261ZM-481.39 1182.926l955.085-935.262 2.48 2.434-955.081 935.261ZM-468.434 1182.926l955.082-935.262 2.485 2.434-955.082 935.257ZM-455.754 1182.926l955.086-935.262 2.484 2.434-955.086 935.261ZM-442.793 1182.926l955.082-935.262 2.484 2.434-955.082 935.261ZM-429.836 1182.926l955.082-935.262 2.48 2.434-955.078 935.257ZM-416.883 1182.926l955.086-935.262 2.48 2.434-955.081 935.261ZM-403.922 1182.926 551.16 247.664l2.485 2.434-955.086 935.261Zm0 0"/></g><path fill="#4EA8F1" d="M1741.281 663.996h-12.32c-1.387 0-2.512-1.101-2.512-2.46 0-1.36 1.125-2.462 2.512-2.462h12.32c13.98-.015 25.313-11.11 25.328-24.8V340.397L1639.98 216.391h-219.023c-13.98.02-25.312 11.113-25.328 24.804v393.078c.016 13.692 11.348 24.786 25.328 24.801h76.715c1.39 0 2.515 1.102 2.515 2.461 0 1.36-1.124 2.461-2.515 2.461h-76.715c-16.754-.02-30.336-13.316-30.355-29.723V241.195c.02-16.41 13.601-29.707 30.355-29.726h220.063c.668 0 1.308.261 1.777.722l128.101 125.45c.473.46.739 1.086.739 1.738v294.894c-.02 16.407-13.598 29.704-30.356 29.723Zm0 0"/><path fill="#4EA8F1" d="M1769.125 341.84a2.535 2.535 0 0 1-1.777-.719l-128.102-125.45a2.423 2.423 0 0 1-.687-2.394c.23-.859.918-1.53 1.796-1.757a2.55 2.55 0 0 1 2.442.671l128.101 125.45c.72.703.934 1.761.547 2.68a2.511 2.511 0 0 1-2.32 1.519ZM1742.055 341.84h-70.782c-18.09-.02-32.75-14.375-32.765-32.09v-71.082c0-1.36 1.125-2.461 2.512-2.461 1.39 0 2.515 1.102 2.515 2.461v71.082c.012 15 12.422 27.152 27.738 27.172h70.782c1.386 0 2.511 1.101 2.511 2.46 0 1.36-1.125 2.462-2.511 2.462Zm0 0"/><path fill="#90D1F4" d="M1606.29 281.691h-173.013c-1.386 0-2.511-1.101-2.511-2.46v-30.45c0-1.36 1.125-2.46 2.511-2.46h173.012c1.387 0 2.512 1.1 2.512 2.46v30.45c0 1.359-1.125 2.46-2.512 2.46Zm-170.5-4.921h167.983v-25.528H1435.79ZM1606.29 344.254h-173.013c-1.386 0-2.511-1.102-2.511-2.461v-30.445c0-1.36 1.125-2.461 2.511-2.461h173.012c1.387 0 2.512 1.101 2.512 2.46v30.446c0 1.36-1.125 2.46-2.512 2.46Zm-170.5-4.922h167.983v-25.523H1435.79Zm0 0"/><path fill="#4EA8F1" d="M1508.742 617.203c-1.39 0-2.515-1.101-2.515-2.46 0-.473.066-47.806.21-49.087.196-1.332 1.418-2.281 2.786-2.164 1.351.153 2.332 1.328 2.218 2.656-.109 2.125-.187 46.582-.187 48.598 0 1.356-1.125 2.457-2.512 2.457ZM1718.633 673.805c-1.387 0-2.512-1.102-2.512-2.461 0-2.715-.062-60.301-.156-62.282-.11-1.355.922-2.542 2.305-2.648 1.386-.11 2.597.902 2.707 2.258.12 1.281.171 62.062.171 62.672 0 1.36-1.125 2.46-2.515 2.46Zm0 0"/><path fill="#4EA8F1" d="M1508.742 677.48c-1.39 0-2.515-1.105-2.515-2.46 0-.594.066-59.446.21-60.723.192-1.336 1.415-2.29 2.786-2.168 1.379.156 2.367 1.375 2.21 2.723-.101 1.957-.18 57.636-.18 60.168 0 1.355-1.124 2.457-2.51 2.46Zm0 0"/><path fill="#4EA8F1" d="M1613.691 788.559c-59.257 0-107.464-27.82-107.464-62.02 0-.605.05-61.129.171-62.414.114-1.27 1.2-2.246 2.504-2.246 1.301 0 2.387.973 2.504 2.242 2.895 30.309 47.824 54.055 102.285 54.055s99.383-23.746 102.278-54.055c.125-1.266 1.207-2.23 2.504-2.23 1.3 0 2.386.968 2.504 2.234.125 1.285.171 61.809.171 62.414 0 34.2-48.207 62.02-107.457 62.02Zm-102.363-108.512c-.043 17.758-.074 44.66-.074 46.492 0 31.484 45.953 57.098 102.437 57.098 56.48 0 102.43-25.614 102.43-57.098 0-1.832-.031-28.707-.074-46.492-13.91 25.074-54.668 43.05-102.356 43.05-47.687 0-88.457-17.976-102.363-43.05Zm0 0"/><path fill="#4EA8F1" d="M1613.691 662.227c-57.027 0-104.156-25.707-107.293-58.516-.125-1.352.887-2.55 2.27-2.68 1.375-.105 2.586.875 2.738 2.219 2.899 30.309 47.824 54.055 102.285 54.055 54.465 0 99.383-23.746 102.282-54.055.129-1.355 1.355-2.348 2.738-2.223 1.383.13 2.398 1.332 2.266 2.684-3.137 32.809-50.266 58.516-107.286 58.516Zm0 0"/><path fill="#90D1F4" d="M1613.691 601.348c-59.168 0-107.3-26.352-107.3-58.746 0-32.391 48.132-58.747 107.3-58.747s107.293 26.356 107.293 58.747c0 32.39-48.132 58.746-107.293 58.746Zm0-112.57c-55.437 0-102.273 24.648-102.273 53.824 0 29.175 46.836 53.824 102.273 53.824 55.438 0 102.27-24.649 102.27-53.824 0-29.176-46.832-53.82-102.27-53.82Zm0 0"/><path fill="#4EA8F1" d="M1718.633 615.547c-1.387 0-2.512-1.102-2.512-2.461l-.039-10.8c-.05-12.848-.125-32.962-.125-36.348 0-1.36 1.125-2.461 2.516-2.461 1.386 0 2.511 1.101 2.511 2.46 0 3.383.075 23.489.121 36.329l.043 10.82c0 1.36-1.125 2.46-2.515 2.46Zm0 0"/><path fill="#90D1F4" d="M1685.664 621.281c-5.734-.297-10.148-5.066-9.887-10.683 0-1.36 1.125-2.461 2.516-2.461 1.387 0 2.512 1.101 2.512 2.46.492 2.512 2.894 4.216 5.484 3.891 2.59-.324 4.48-2.562 4.313-5.113-.165-2.55-2.329-4.54-4.938-4.54-1.387 0-2.512-1.1-2.512-2.46 0-1.36 1.125-2.46 2.512-2.46 5.61.538 9.887 5.16 9.887 10.683 0 5.52-4.278 10.14-9.887 10.68ZM1685.664 682.027c-5.734-.297-10.148-5.066-9.887-10.683 0-1.36 1.125-2.461 2.516-2.461 1.387 0 2.512 1.101 2.512 2.46.492 2.512 2.894 4.216 5.484 3.891 2.59-.324 4.48-2.562 4.313-5.113-.165-2.55-2.329-4.539-4.938-4.539-1.387 0-2.512-1.102-2.512-2.46 0-1.36 1.125-2.462 2.512-2.462 5.61.54 9.887 5.16 9.887 10.684 0 5.52-4.278 10.14-9.887 10.68ZM1685.664 748.723c-5.734-.297-10.148-5.067-9.887-10.684 0-1.36 1.125-2.46 2.516-2.46 1.387 0 2.512 1.1 2.512 2.46.492 2.508 2.894 4.211 5.484 3.89 2.59-.324 4.48-2.562 4.313-5.116-.165-2.551-2.329-4.54-4.938-4.54-1.387 0-2.512-1.101-2.512-2.46 0-1.36 1.125-2.461 2.512-2.461 5.61.543 9.887 5.164 9.887 10.687 0 5.52-4.278 10.14-9.887 10.684Zm0 0"/><path fill="#4EA8F1" d="M1728.96 452.934h-295.683c-1.386 0-2.511-1.106-2.511-2.461 0-1.36 1.125-2.465 2.511-2.465h295.684c1.39 0 2.516 1.105 2.516 2.465 0 1.355-1.125 2.46-2.516 2.46ZM1728.96 390.96h-295.683c-1.386 0-2.511-1.1-2.511-2.46 0-1.36 1.125-2.46 2.511-2.46h295.684c1.39 0 2.516 1.1 2.516 2.46 0 1.36-1.125 2.46-2.516 2.46ZM1508.938 514.898h-75.66c-1.387 0-2.512-1.101-2.512-2.46 0-1.36 1.125-2.461 2.511-2.461h75.66c1.387 0 2.512 1.101 2.512 2.46 0 1.36-1.125 2.461-2.512 2.461ZM1497.672 576.867h-64.395c-1.386 0-2.511-1.101-2.511-2.46 0-1.36 1.125-2.462 2.511-2.462h64.395c1.39 0 2.515 1.102 2.515 2.461 0 1.36-1.124 2.461-2.515 2.461ZM547.344 734.25H208.598c-38.77-.043-70.188-30.813-70.235-68.777V333.758c.047-37.969 31.465-68.735 70.235-68.778h338.746c38.773.043 70.191 30.81 70.238 68.778v331.715c-.047 37.965-31.465 68.734-70.238 68.777ZM208.598 269.902c-35.996.04-65.164 28.606-65.207 63.856v331.715c.043 35.25 29.21 63.812 65.207 63.855h338.746c36-.039 65.168-28.605 65.21-63.855V333.758c-.042-35.25-29.214-63.817-65.21-63.856Zm0 0"/><path fill="#4EA8F1" d="M615.07 339.309H140.875c-1.387 0-2.512-1.102-2.512-2.461 0-1.36 1.125-2.461 2.512-2.461H615.07c1.387 0 2.512 1.101 2.512 2.46 0 1.36-1.125 2.462-2.512 2.462ZM464.648 316.688c-6.988-.008-12.648-5.551-12.656-12.391 0-1.36 1.125-2.461 2.512-2.461 1.39 0 2.516 1.101 2.516 2.46 0 4.126 3.418 7.47 7.632 7.47 4.215 0 7.63-3.348 7.63-7.473-.005-4.129-3.423-7.473-7.634-7.473-1.39 0-2.515-1.101-2.515-2.46 0-1.36 1.125-2.462 2.515-2.462 4.54-.027 8.747 2.329 11.028 6.176a12.175 12.175 0 0 1 0 12.438c-2.281 3.847-6.488 6.203-11.028 6.175ZM505.266 316.688c-6.989-.004-12.653-5.551-12.66-12.391 0-1.36 1.124-2.461 2.511-2.461 1.39 0 2.516 1.101 2.516 2.46 0 4.13 3.418 7.474 7.633 7.474 4.214 0 7.632-3.344 7.632-7.473s-3.418-7.477-7.632-7.477c-1.387 0-2.512-1.101-2.512-2.46 0-1.36 1.125-2.462 2.512-2.462 4.539-.027 8.75 2.329 11.027 6.176a12.175 12.175 0 0 1 0 12.438c-2.277 3.847-6.488 6.203-11.027 6.175ZM545.883 316.688c-6.988-.004-12.649-5.551-12.66-12.391 0-1.36 1.125-2.461 2.515-2.461 1.387 0 2.512 1.101 2.512 2.46 0 4.13 3.418 7.474 7.633 7.474s7.633-3.344 7.633-7.473-3.418-7.477-7.633-7.477c-1.387 0-2.512-1.101-2.512-2.46 0-1.36 1.125-2.462 2.512-2.462 4.539-.027 8.75 2.329 11.027 6.176a12.175 12.175 0 0 1 0 12.438c-2.277 3.847-6.488 6.203-11.027 6.175Zm0 0"/><path fill="#90D1F4" d="M393.27 422.309H178.418V379.89H393.27Zm-209.829-4.922h204.801v-32.575h-204.8ZM393.27 676.512H178.418V449.316H393.27ZM183.44 671.59h204.801V454.238h-204.8Zm0 0"/><path fill="#4EA8F1" d="M577.527 569.07H428.012v-81.738h149.515Zm-144.492-4.922H572.5v-71.894H433.035Zm0 0"/><g clip-path="url(#y)"><g fill="#90D1F4" clip-path="url(#z)"><path d="m997.406 1036.395 955.082-935.262 2.48 2.433-955.077 935.258ZM1010.363 1036.395l955.082-935.262 2.485 2.433-955.082 935.258ZM1023.32 1036.395l955.082-935.262 2.485 2.433-955.086 935.262ZM1036.277 1036.395l955.082-935.262 2.485 2.433-955.082 935.262ZM1049.234 1036.395l955.082-935.262 2.485 2.433-955.082 935.258ZM1062.191 1036.395l955.082-935.262 2.485 2.433-955.082 935.258ZM1075.148 1036.395l955.082-935.262 2.485 2.433-955.082 935.262ZM1088.105 1036.395l955.086-935.262 2.48 2.433-955.081 935.262ZM1101.063 1036.395l955.082-935.258 2.484 2.43-955.082 935.261ZM1114.02 1036.395l955.082-935.262 2.484 2.433-955.082 935.262ZM1126.977 1036.395l955.082-935.262 2.484 2.433-955.082 935.262ZM1139.66 1036.395l955.078-935.262 2.485 2.433-955.078 935.258ZM1152.613 1036.395 2107.7 101.133l2.48 2.433-955.081 935.262ZM1165.574 1036.395l955.082-935.262 2.485 2.433-955.086 935.262ZM1178.531 1036.395l955.078-935.258 2.485 2.43-955.082 935.261ZM1191.488 1036.395l955.082-935.258 2.485 2.43-955.082 935.261ZM1204.441 1036.395l955.086-935.262 2.485 2.433-955.086 935.262ZM1217.402 1036.395l955.082-935.262 2.485 2.433-955.082 935.262Zm0 0"/></g></g><g clip-path="url(#A)"><path fill="#90D1F4" d="m637.52 1106.535 955.082-935.262 2.484 2.434-955.082 935.258Zm0 0"/></g><g fill="#90D1F4" clip-path="url(#B)"><path d="m650.48 1106.535 955.079-935.258 2.484 2.43-955.082 935.258ZM663.438 1106.535l955.078-935.258 2.484 2.43-955.078 935.258ZM676.395 1106.535l955.078-935.258 2.484 2.43-955.078 935.258ZM689.352 1106.535l955.078-935.258 2.484 2.43-955.082 935.262ZM702.309 1106.535l955.082-935.258 2.48 2.43-955.078 935.262ZM714.992 1106.535l955.078-935.258 2.485 2.434-955.082 935.254ZM727.945 1106.535l955.082-935.258 2.485 2.43-955.082 935.262ZM740.902 1106.535l955.082-935.258 2.485 2.43-955.082 935.262ZM753.86 1106.535l955.081-935.258 2.48 2.43-955.077 935.258ZM766.82 1106.535l955.078-935.258 2.485 2.43-955.078 935.258ZM779.773 1106.535l955.082-935.258 2.485 2.43-955.082 935.262ZM792.734 1106.535l955.078-935.258 2.485 2.43-955.082 935.258ZM805.691 1106.535l955.079-935.258 2.484 2.434-955.082 935.254Zm0 0"/></g><g clip-path="url(#C)"><path fill="#90D1F4" d="m637.52 1043.973 955.082-935.262 2.484 2.434-955.082 935.257Zm0 0"/></g><g fill="#90D1F4" clip-path="url(#D)"><path d="M650.48 1043.973 1605.56 108.71l2.484 2.434-955.078 935.257ZM663.438 1043.969l955.078-935.254 2.484 2.43-955.078 935.257ZM676.395 1043.969l955.078-935.254 2.484 2.43-955.078 935.257ZM689.352 1043.973 1644.43 108.71l2.484 2.434-955.082 935.257ZM702.309 1043.973 1657.39 108.71l2.484 2.434-955.082 935.257ZM714.992 1043.969l955.078-935.254 2.485 2.43-955.078 935.257ZM727.945 1043.973l955.082-935.262 2.485 2.434-955.082 935.257ZM740.906 1043.973l955.078-935.262 2.485 2.434-955.082 935.257ZM753.86 1043.973l955.081-935.258 2.48 2.43-955.077 935.257ZM766.82 1043.973l955.078-935.258 2.485 2.43-955.078 935.257ZM779.773 1043.973l955.082-935.262 2.485 2.434-955.082 935.257ZM792.734 1043.973l955.078-935.262 2.485 2.434-955.078 935.257ZM805.691 1043.969l955.079-935.254 2.484 2.43-955.078 935.257Zm0 0"/></g><g clip-path="url(#E)"><g fill="#90D1F4" clip-path="url(#F)"><path d="m893.941 1251.71 955.079-935.257 2.484 2.43-955.078 935.258ZM906.95 1251.71l955.081-935.26 2.485 2.433-955.082 935.258ZM919.906 1251.71l955.082-935.26 2.485 2.433L922.39 1254.14ZM932.863 1251.707l955.082-935.254 2.48 2.43-955.077 935.258ZM945.824 1251.71l955.078-935.257 2.485 2.43-955.078 935.258ZM958.777 1251.71l955.082-935.26 2.485 2.433-955.082 935.258ZM971.738 1251.71l955.078-935.26 2.485 2.433-955.082 935.258ZM984.695 1251.71l955.078-935.257 2.485 2.43L987.18 1254.14ZM997.652 1251.71l955.078-935.257 2.485 2.43-955.078 935.258ZM1010.605 1251.71l955.082-935.26 2.485 2.433-955.082 935.258ZM1023.566 1251.71l955.082-935.26 2.48 2.433-955.077 935.258ZM1036.523 1251.707l955.079-935.254 2.484 2.43-955.078 935.258ZM1049.203 1251.71l955.082-935.26 2.48 2.433-955.078 935.258ZM1062.16 1251.71l955.082-935.26 2.485 2.433-955.082 935.258ZM1075.117 1251.71l955.078-935.257 2.485 2.43-955.078 935.258ZM1088.078 1251.707l955.078-935.254 2.485 2.43-955.079 935.258ZM1101.031 1251.71l955.082-935.26 2.485 2.433-955.082 935.258ZM1113.992 1251.71l955.078-935.26 2.485 2.433-955.082 935.258Zm0 0"/></g></g><g fill="#90D1F4" clip-path="url(#G)"><path d="m-356.18 1171.941 955.082-935.257 2.485 2.43-955.082 935.261ZM-343.223 1171.941 611.86 236.684l2.485 2.43-955.082 935.261ZM-330.266 1171.941 624.816 236.68l2.485 2.433-955.082 935.262ZM-317.309 1171.941 637.773 236.68l2.485 2.433-955.082 935.262ZM-304.352 1171.941 650.73 236.684l2.485 2.43-955.082 935.261ZM-291.395 1171.941 663.687 236.68l2.485 2.433-955.086 935.262ZM-278.438 1171.941 676.645 236.68l2.484 2.433-955.082 935.262ZM-265.48 1171.941 689.605 236.68l2.485 2.433-955.086 935.262ZM-252.8 1171.941 702.28 236.68l2.485 2.433-955.082 935.262ZM-239.844 1171.941 715.242 236.68l2.485 2.433-955.086 935.262ZM-226.883 1171.941l955.078-935.257 2.485 2.43-955.082 935.261ZM-213.926 1171.941l955.082-935.257 2.48 2.43-955.077 935.261ZM-200.973 1171.941 754.113 236.68l2.485 2.433-955.086 935.262ZM-188.012 1171.941 767.07 236.68l2.485 2.433-955.086 935.262ZM-175.055 1171.941l955.078-935.257 2.485 2.43-955.082 935.261Zm0 0"/></g><path fill="#90D1F4" d="M577.527 461.629H428.012V379.89h149.515Zm-144.492-4.926H572.5v-71.89H433.035Zm0 0"/><g fill="#90D1F4" clip-path="url(#H)"><path d="m-356.18 1386.828 955.082-935.262 2.485 2.434-955.082 935.258ZM-343.223 1386.828 611.86 451.566l2.485 2.434-955.082 935.258ZM-330.266 1386.828l955.082-935.262 2.485 2.434-955.082 935.262ZM-317.309 1386.828l955.082-935.262 2.485 2.434-955.082 935.262ZM-304.352 1386.828 650.73 451.566l2.485 2.434-955.082 935.258ZM-291.395 1386.828l955.082-935.262 2.485 2.434-955.086 935.262ZM-278.438 1386.828l955.083-935.262 2.484 2.434-955.082 935.262ZM-265.48 1386.828l955.085-935.262L692.09 454l-955.086 935.262ZM-252.8 1386.828 702.28 451.566l2.485 2.434-955.082 935.262ZM-239.844 1386.828l955.086-935.262 2.485 2.434-955.086 935.262ZM-226.883 1386.828l955.078-935.262L730.68 454l-955.082 935.258ZM-213.926 1386.828l955.082-935.262 2.48 2.434-955.077 935.258ZM-200.973 1386.828l955.086-935.262 2.48 2.434-955.081 935.262ZM-188.012 1386.828 767.07 451.566l2.485 2.434-955.086 935.262ZM-175.055 1386.828l955.078-935.262 2.485 2.434-955.082 935.258Zm0 0"/></g><path fill="#90D1F4" d="M577.527 676.512H428.012v-81.735h149.515Zm-144.492-4.922H572.5V599.7H433.035Zm0 0"/><g fill="#90D1F4" clip-path="url(#I)"><path d="m-356.18 1279.383 955.082-935.258 2.485 2.434-955.082 935.257ZM-343.223 1279.383 611.86 344.125l2.485 2.434-955.082 935.257ZM-330.266 1279.387l955.082-935.262 2.485 2.43-955.082 935.261ZM-317.309 1279.387l955.082-935.262 2.485 2.43-955.082 935.261ZM-304.352 1279.383 650.73 344.125l2.485 2.434-955.082 935.257ZM-291.395 1279.387l955.082-935.262 2.485 2.43-955.086 935.261ZM-278.438 1279.387l955.083-935.262 2.484 2.43-955.082 935.261ZM-265.48 1279.387l955.085-935.262 2.485 2.43-955.086 935.261ZM-252.8 1279.387 702.28 344.125l2.485 2.43-955.082 935.261ZM-239.844 1279.387l955.086-935.262 2.485 2.43-955.086 935.261ZM-226.883 1279.383l955.078-935.258 2.485 2.434-955.082 935.257ZM-213.926 1279.383l955.082-935.258 2.48 2.434-955.077 935.257ZM-200.973 1279.387l955.086-935.262 2.48 2.43-955.081 935.261ZM-188.012 1279.387 767.07 344.125l2.485 2.43-955.086 935.261ZM-175.055 1279.383l955.078-935.258 2.485 2.434-955.082 935.257Zm0 0"/></g><path fill="#90D1F4" d="M577.527 569.07H428.012v-81.738h149.515Zm-144.492-4.922H572.5v-71.894H433.035Zm0 0"/><path fill="#4EA8F1" d="M730.457 523.02h-103.23c-1.387 0-2.512-1.102-2.512-2.461 0-1.36 1.125-2.461 2.512-2.461h103.23c1.39 0 2.516 1.101 2.516 2.46 0 1.36-1.125 2.462-2.516 2.462ZM730.457 481.93h-103.23c-1.387 0-2.512-1.102-2.512-2.461 0-1.36 1.125-2.461 2.512-2.461h103.23c1.39 0 2.516 1.101 2.516 2.46 0 1.36-1.125 2.462-2.516 2.462ZM1296.832 523.02h-28.336c-1.39 0-2.516-1.102-2.516-2.461 0-1.36 1.125-2.461 2.516-2.461h28.336c1.387 0 2.512 1.101 2.512 2.46 0 1.36-1.125 2.462-2.512 2.462ZM1296.832 481.93h-28.336c-1.39 0-2.516-1.102-2.516-2.461 0-1.36 1.125-2.461 2.516-2.461h28.336c1.387 0 2.512 1.101 2.512 2.46 0 1.36-1.125 2.462-2.512 2.462ZM1312.242 549.719c-1.387 0-2.512-1.102-2.512-2.461v-94.492c0-.93.536-1.778 1.383-2.196a2.561 2.561 0 0 1 2.625.215l65.41 47.246c.641.461 1.02 1.2 1.02 1.98 0 .782-.379 1.516-1.02 1.981l-65.41 47.242a2.59 2.59 0 0 1-1.496.485Zm2.516-92.078v84.742l58.66-42.371Zm0 0"/><g mask="url(#J)"><use xlink:href="#K"/></g></svg>